<svg id="Layer_1" data-name="Layer 1" xmlns="http://www.w3.org/2000/svg" viewBox="0 0 512 512"><defs><style>.cls-1{fill:#39a6e2;}</style></defs><path className="cls-1" d="M193.94,497.45c-29.89-2.36-59.18-7.79-86.62-20.09-43-19.25-69.95-52.27-82.38-97.7-6-21.78-8.09-44-9.36-66.3-1.66-29.12-1.53-58.29-.88-87.43.52-23.14,1.28-46.38,6.5-69.05,5.28-22.94,12.43-45.32,25.06-65.49,21.65-34.58,53.33-54.81,92.32-64.94,25.17-6.54,50.83-8.85,76.63-10.58a635,635,0,0,1,66.16-.67c34.16,1.27,68.28,3.41,101.3,13.76,35.16,11,64.18,30.36,84.71,61.42,6,9.11,10.21,19.16,14,29.39A271.3,271.3,0,0,1,498,209a25.73,25.73,0,0,0,.81,7.47v81.33c-.59,8-1.3,16-1.76,24A226.68,226.68,0,0,1,473.2,412c-20,39.62-52.89,63.53-95.32,74.95a332.89,332.89,0,0,1-75.42,11.53,42.6,42.6,0,0,0-5.11.77H217Zm126.86-139c3.55-7.1,2.71-14.08-2.13-20.43a50.19,50.19,0,0,0-4.5-4.85q-35.75-35.78-71.52-71.54c-4.46-4.46-4.45-4.5,0-8.92q36.76-36.78,73.51-73.56c8.88-8.92,9-20.75.55-28.92a19.14,19.14,0,0,0-26.54-.61c-3.05,2.74-5.86,5.73-8.76,8.63q-41.28,41.27-82.56,82.56c-11.28,11.28-11.29,21.39,0,32.64q44.46,44.48,88.89,88.94c4.3,4.31,9,7.34,15.34,7.27C311.18,369.51,317.2,365.63,320.8,358.46Z"/></svg>