<svg id="Layer_1" data-name="Layer 1" xmlns="http://www.w3.org/2000/svg" viewBox="0 0 512 512"><defs><style>.cls-1{fill:#39a6e2;}</style></defs><path className="cls-1" d="M296.06,499.26H215.67a42.44,42.44,0,0,0-5.1-.77A332.89,332.89,0,0,1,135.15,487C92.72,475.54,59.84,451.63,39.83,412A226.69,226.69,0,0,1,16,321.79c-.45-8-1.16-16-1.75-24V216.5a25.73,25.73,0,0,0,.81-7.47,271.3,271.3,0,0,1,16.59-89.26c3.79-10.23,8-20.28,14-29.39C66.17,59.32,95.19,40,130.36,29c33-10.35,67.14-12.49,101.3-13.76a634.76,634.76,0,0,1,66.15.67c25.81,1.73,51.47,4,76.64,10.58,39,10.13,70.67,30.36,92.32,64.94,12.63,20.17,19.78,42.55,25.06,65.49,5.22,22.67,6,45.91,6.5,69.05.65,29.14.78,58.31-.88,87.43-1.28,22.34-3.4,44.52-9.36,66.3-12.44,45.43-39.43,78.45-82.38,97.7-27.44,12.3-56.74,17.73-86.62,20.09ZM210,369.67c6.31.07,11-3,15.33-7.27q44.4-44.52,88.89-88.94c11.26-11.25,11.25-21.36,0-32.64q-41.27-41.3-82.57-82.56c-2.89-2.9-5.7-5.89-8.75-8.63a19.14,19.14,0,0,0-26.54.61c-8.45,8.17-8.33,20,.55,28.92q36.68,36.85,73.51,73.56c4.41,4.42,4.41,4.46-.05,8.92q-35.75,35.78-71.52,71.54a51.37,51.37,0,0,0-4.49,4.85c-4.84,6.35-5.69,13.33-2.13,20.43S201.85,369.51,210,369.67Z"/></svg>